<svg width="224" height="89" viewBox="0 0 224 89" fill="none" xmlns="http://www.w3.org/2000/svg">
<path d="M3 85.6236C24.1222 51.7 49.5722 18.8587 88.9761 6.21049C99.8986 2.7045 119.217 0.190779 128.519 9.49203C136.602 17.5752 137.96 33.6618 137.297 44.2763C136.648 54.6513 132.898 66.1604 124.827 72.9897C121.165 76.0883 116.176 77.6465 114.49 72.2514C110.019 57.9442 127.372 43.6088 140.66 46.0811C160.453 49.7634 177.651 66.4266 197.923 66.4266C200.246 66.4266 212.69 68.0913 212.69 63.4732C212.69 58.7087 204.931 55.6203 202.353 52.3981C198.413 47.4724 211.753 60.9511 217.202 64.1295C221.501 66.637 222.131 65.783 216.3 67.9033C210.319 70.0782 201.524 74.8214 199.4 81.1935" stroke="#FFB400" stroke-width="5" stroke-linecap="round"/>
</svg>
