<svg width="192" height="72" viewBox="0 0 192 72" fill="none" xmlns="http://www.w3.org/2000/svg">
<path d="M3 31.1989C9.22631 51.0098 12.7764 61.382 33.4 56.7989C43.7317 54.503 47.7999 49.5964 47.7999 39.9989C47.7999 33.6188 38.2 35.0518 38.2 41.5989C38.2 50.1425 41.6096 58.473 48.6 63.91C64.9248 76.6073 92.0168 62.1818 103.8 50.3989C108.482 45.7173 109.758 32.5673 100.6 37.9544C94.132 41.7591 98.0514 52.8808 102.2 56.7989C120.993 74.5483 143.637 55.3616 157.222 41.7767C161.787 37.212 170.791 26.7316 172.511 20.71C173.906 15.8294 184.463 31.9368 178.289 23.9989C174.716 19.4054 167.546 12.7219 161.4 11.9989C158.436 11.6502 174.911 7.94964 177.4 6.84331C181.577 4.98709 191.225 -0.0320148 188.244 5.59888C185.776 10.2611 182.2 18.1815 182.2 23.1989" stroke="#FFB400" stroke-width="5" stroke-linecap="round"/>
</svg>
