<svg width="256" height="176" viewBox="0 0 256 176" fill="none" xmlns="http://www.w3.org/2000/svg">
<path fill-rule="evenodd" clip-rule="evenodd" d="M202.713 42.9105C206.462 46.0394 208.559 50.3975 209.007 55.9848H253.65C253.594 44.7543 250.797 34.9486 245.259 26.5676C239.776 18.1308 231.972 11.5937 221.846 6.95619C211.72 2.31873 199.72 0 185.846 0C176.685 0 158 0.999136 158 0.999136L157.998 1H110.871V71.3477H108.498L56.2833 1H1.35622L60.0129 78.4844L0 175H56.2833L95.2747 109.75L110.871 130.141V175H157.921C157.973 175.03 158 175.045 158 175.045C158 175.045 175.884 176 186.182 176C200.727 176 213.175 173.961 223.524 169.882C233.93 165.803 241.93 159.853 247.524 152.031C253.119 144.208 255.944 134.654 256 123.368C255.944 116.83 254.881 110.796 252.811 105.265C250.797 99.7334 247.636 94.7607 243.329 90.3467C239.021 85.8768 233.483 81.9937 226.713 78.6972C219.944 75.4007 211.804 72.7467 202.294 70.7353L188.196 67.7181C184.112 66.88 180.587 65.9302 177.622 64.8686C174.657 63.807 172.224 62.6337 170.322 61.3486C168.42 60.0076 167.021 58.527 166.126 56.9067C165.287 55.2305 164.923 53.3587 165.035 51.2914C165.091 48.7771 165.846 46.5422 167.301 44.5867C168.755 42.6311 170.993 41.0946 174.014 39.9771C177.091 38.8038 181.035 38.2171 185.846 38.2171C193.399 38.2171 199.021 39.7816 202.713 42.9105ZM158 122.39C158.597 124.013 159.348 125.512 160.252 126.888C162.601 130.464 165.902 133.173 170.154 135.017C174.462 136.861 179.58 137.783 185.51 137.783C190.49 137.783 194.657 137.168 198.014 135.939C201.371 134.71 203.916 133.006 205.65 130.827C207.385 128.648 208.28 126.161 208.336 123.368C208.28 120.742 207.413 118.451 205.734 116.495C204.112 114.484 201.427 112.696 197.678 111.131C193.93 109.511 188.867 108.003 182.49 106.606L165.371 102.918C162.824 102.366 160.367 101.753 158 101.077V122.39Z" fill="white"/>
</svg>
