<svg width="390" height="390" viewBox="0 0 390 390" fill="none" xmlns="http://www.w3.org/2000/svg">
<rect width="390" height="390" rx="195" fill="#FD853A"/>
<path fill-rule="evenodd" clip-rule="evenodd" d="M269.713 149.91C273.462 153.039 275.559 157.397 276.007 162.985H320.65C320.594 151.754 317.797 141.949 312.259 133.568C306.776 125.131 298.972 118.594 288.846 113.956C278.72 109.319 266.72 107 252.846 107C243.685 107 225 107.999 225 107.999C225 107.999 224.999 107.999 224.998 108H177.871V178.348H175.498L123.283 108H68.3562L127.013 185.484L67 282H123.283L162.275 216.75L177.871 237.141V282H224.921C224.973 282.03 225 282.045 225 282.045C225 282.045 242.884 283 253.182 283C267.727 283 280.175 280.961 290.524 276.882C300.93 272.803 308.93 266.853 314.524 259.031C320.119 251.208 322.944 241.654 323 230.368C322.944 223.83 321.881 217.796 319.811 212.265C317.797 206.733 314.636 201.761 310.329 197.347C306.021 192.877 300.483 188.994 293.713 185.697C286.944 182.401 278.804 179.747 269.294 177.735L255.196 174.718C251.112 173.88 247.587 172.93 244.622 171.869C241.657 170.807 239.224 169.634 237.322 168.349C235.42 167.008 234.021 165.527 233.126 163.907C232.287 162.23 231.923 160.359 232.035 158.291C232.091 155.777 232.846 153.542 234.301 151.587C235.755 149.631 237.993 148.095 241.014 146.977C244.091 145.804 248.035 145.217 252.846 145.217C260.399 145.217 266.021 146.782 269.713 149.91ZM225 229.39C225.597 231.013 226.348 232.512 227.252 233.888C229.601 237.464 232.902 240.173 237.154 242.017C241.462 243.861 246.58 244.783 252.51 244.783C257.49 244.783 261.657 244.168 265.014 242.939C268.371 241.71 270.916 240.006 272.65 237.827C274.385 235.648 275.28 233.161 275.336 230.368C275.28 227.742 274.413 225.451 272.734 223.495C271.112 221.484 268.427 219.696 264.678 218.131C260.93 216.511 255.867 215.003 249.49 213.606L232.371 209.918C229.824 209.366 227.367 208.753 225 208.077V229.39Z" fill="white"/>
</svg>
