<svg width="390" height="390" viewBox="0 0 390 390" fill="none" xmlns="http://www.w3.org/2000/svg">
<path d="M227.252 233.888C226.348 232.512 225.597 231.013 225 229.39V208.077C227.367 208.753 229.824 209.366 232.371 209.918L249.49 213.606C255.867 215.003 260.93 216.511 264.678 218.131C268.427 219.696 271.112 221.484 272.734 223.495C274.413 225.451 275.28 227.742 275.336 230.368C275.28 233.161 274.385 235.648 272.65 237.827C270.916 240.006 268.371 241.71 265.014 242.939C261.657 244.168 257.49 244.783 252.51 244.783C246.58 244.783 241.462 243.861 237.154 242.017C232.902 240.173 229.601 237.464 227.252 233.888Z" fill="#FD853A"/>
<path fill-rule="evenodd" clip-rule="evenodd" d="M195 390C302.696 390 390 302.696 390 195C390 87.3045 302.696 0 195 0C87.3045 0 0 87.3045 0 195C0 302.696 87.3045 390 195 390ZM276.007 162.985C275.559 157.397 273.462 153.039 269.713 149.91C266.021 146.782 260.399 145.217 252.846 145.217C248.035 145.217 244.091 145.804 241.014 146.977C237.993 148.095 235.755 149.631 234.301 151.587C232.846 153.542 232.091 155.777 232.035 158.291C231.923 160.359 232.287 162.23 233.126 163.907C234.021 165.527 235.42 167.008 237.322 168.349C239.224 169.634 241.657 170.807 244.622 171.869C247.587 172.93 251.112 173.88 255.196 174.718L269.294 177.735C278.804 179.747 286.944 182.401 293.713 185.697C300.483 188.994 306.021 192.877 310.329 197.347C314.636 201.761 317.797 206.733 319.811 212.265C321.881 217.796 322.944 223.83 323 230.368C322.944 241.654 320.119 251.208 314.524 259.031C308.93 266.853 300.93 272.803 290.524 276.882C280.175 280.961 267.727 283 253.182 283C242.884 283 225 282.045 225 282.045L224.921 282H177.871V237.141L162.275 216.75L123.283 282H67L127.013 185.484L68.3562 108H123.283L175.498 178.348H177.871V108H224.998L225 107.999C225 107.999 243.685 107 252.846 107C266.72 107 278.72 109.319 288.846 113.956C298.972 118.594 306.776 125.131 312.259 133.568C317.797 141.949 320.594 151.754 320.65 162.985H276.007Z" fill="#FD853A"/>
</svg>
